<?xml version="1.0" standalone="no"?>
<!DOCTYPE svg PUBLIC "-//W3C//DTD SVG 20010904//EN"
 "http://www.w3.org/TR/2001/REC-SVG-20010904/DTD/svg10.dtd">
<svg version="1.0" xmlns="http://www.w3.org/2000/svg"
 width="260.000000pt" height="260.000000pt" viewBox="0 0 260.000000 260.000000"
 preserveAspectRatio="xMidYMid meet">
<metadata>
Created by potrace 1.11, written by Peter Selinger 2001-2013
</metadata>
<g transform="translate(0.000000,260.000000) scale(0.100000,-0.100000)"
fill="#000000" stroke="none">
<path d="M833 2435 c0 -8 4 -12 9 -9 5 3 6 10 3 15 -9 13 -12 11 -12 -6z"/>
<path d="M511 2423 c4 -23 -2 -35 -16 -30 -8 4 -17 1 -21 -6 -4 -7 -4 -9 1 -5
4 4 13 3 20 -2 8 -7 15 -3 23 15 7 16 8 26 1 30 -5 4 -9 3 -8 -2z"/>
<path d="M670 2426 c0 -2 7 -7 16 -10 8 -3 12 -2 9 4 -6 10 -25 14 -25 6z"/>
<path d="M719 2428 c-5 -18 -6 -38 -1 -34 7 8 12 36 6 36 -2 0 -4 -1 -5 -2z"/>
<path d="M359 2415 c-1 -3 -2 -11 -3 -17 -1 -7 -8 -12 -15 -10 -7 1 -10 -2 -6
-8 3 -6 -4 -14 -17 -19 -16 -7 -18 -10 -6 -10 10 -1 16 -9 15 -21 -1 -18 -2
-18 -21 -2 -16 14 -15 10 4 -17 13 -19 19 -31 12 -27 -16 10 -15 -6 1 -23 7
-9 8 -11 0 -7 -8 4 -10 -7 -8 -39 1 -25 -1 -45 -4 -45 -4 0 -6 -21 -5 -47 0
-27 -3 -55 -7 -64 -5 -9 -3 -21 4 -29 9 -10 9 -11 -1 -6 -10 6 -13 -4 -13 -41
1 -79 -4 -153 -9 -153 -3 0 -5 -24 -5 -54 0 -35 -3 -52 -11 -49 -6 2 -17 -3
-24 -11 -7 -9 -16 -14 -20 -11 -4 2 -16 -5 -26 -18 -18 -20 -18 -21 -1 -7 11
8 29 15 40 17 21 3 21 2 -3 -17 -24 -19 -24 -19 -2 -13 22 5 26 14 22 42 -1
13 1 13 15 1 9 -7 12 -16 7 -19 -5 -3 -8 -14 -6 -24 2 -14 -3 -17 -19 -13 -12
3 -16 3 -9 0 6 -3 10 -10 6 -15 -3 -5 0 -8 7 -7 7 2 13 -9 14 -24 1 -18 -2
-25 -9 -20 -17 10 -37 11 -30 1 3 -5 10 -7 15 -4 5 4 9 3 10 -2 0 -4 2 -16 4
-25 2 -10 -1 -18 -7 -18 -6 0 -7 8 -4 17 4 10 4 14 0 10 -4 -4 -12 -2 -19 3
-8 7 -12 5 -12 -5 0 -8 4 -12 8 -10 4 3 9 -2 13 -10 3 -8 -3 -19 -12 -24 -22
-13 -7 -14 17 -2 13 7 17 5 18 -10 1 -10 -3 -19 -8 -19 -6 0 -7 6 -3 13 4 6
-1 4 -11 -5 -16 -15 -20 -15 -29 -2 -9 12 -11 10 -11 -10 0 -13 3 -22 7 -19 5
2 17 6 27 8 14 3 19 -2 18 -15 -1 -15 -4 -16 -14 -8 -8 6 -16 8 -20 4 -3 -3
-1 -6 5 -6 7 0 12 -4 12 -10 0 -5 -8 -7 -17 -3 -19 7 -18 5 11 -17 13 -10 17
-10 12 -2 -4 6 -3 12 2 12 9 0 10 -69 0 -86 -3 -5 -4 -21 -3 -36 1 -15 -2 -25
-7 -22 -4 3 -8 1 -8 -5 0 -5 4 -12 9 -15 5 -4 8 -14 6 -24 -2 -9 -4 -19 -4
-22 -1 -2 -7 2 -13 8 -10 10 -10 15 2 23 13 9 13 10 0 6 -8 -2 -14 -14 -13
-26 2 -11 -2 -21 -7 -21 -6 0 -10 -5 -10 -12 0 -9 3 -9 12 0 16 16 25 15 25
-3 0 -8 -4 -12 -9 -9 -4 3 -8 0 -8 -6 0 -6 -6 -8 -12 -4 -7 4 -10 4 -6 -1 4
-4 0 -14 -10 -22 -15 -13 -15 -13 4 -4 12 6 25 7 29 3 5 -4 5 -1 1 6 -4 6 -2
12 3 12 20 0 11 -20 -13 -32 -29 -13 -40 -34 -23 -44 7 -4 9 -4 5 1 -11 11 11
35 31 35 14 0 14 -2 1 -10 -11 -7 -11 -10 -2 -10 7 0 10 -5 7 -10 -4 -6 -10
-8 -14 -5 -5 2 -8 -5 -7 -17 1 -12 9 -22 19 -24 9 -1 15 2 11 7 -3 5 -10 7
-15 4 -5 -4 -9 -1 -9 4 0 16 16 13 34 -4 16 -16 31 -20 22 -7 -3 5 1 9 9 9 9
0 15 -5 14 -11 -3 -25 2 -35 22 -41 17 -6 19 -9 8 -17 -12 -8 -11 -9 1 -5 8 2
16 9 16 15 3 25 5 27 13 13 8 -12 12 -12 25 -2 14 12 15 10 12 -18 -2 -17 1
-28 6 -25 5 3 7 13 4 21 -4 10 -2 13 7 10 7 -3 21 1 30 8 16 11 16 13 2 19 -9
3 -14 2 -10 -3 4 -8 -16 -8 -35 -1 -3 1 -8 2 -12 1 -5 0 -8 5 -8 12 0 8 -4 7
-10 -3 -8 -13 -10 -12 -10 4 0 13 4 16 18 11 9 -4 31 -8 47 -9 17 0 33 -5 38
-11 4 -6 10 -5 16 4 6 9 11 10 15 2 4 -6 2 -11 -4 -11 -6 0 -9 -4 -5 -10 9
-15 34 0 28 18 -4 13 -3 14 5 4 12 -17 22 -17 33 0 6 9 9 9 9 1 0 -12 -18 -28
-32 -28 -5 0 -8 -3 -8 -7 0 -5 0 -12 0 -17 0 -5 7 -12 16 -15 13 -5 14 -4 6 7
-7 8 -9 17 -5 20 9 9 24 9 20 -1 -1 -4 8 -18 19 -30 16 -17 24 -20 29 -11 5 7
4 10 -1 7 -11 -6 -39 22 -39 39 0 7 6 18 14 25 8 7 11 8 7 1 -9 -16 3 -42 25
-53 15 -8 17 -7 14 10 -3 13 2 20 12 20 13 0 13 3 3 15 -11 13 -10 14 4 9 9
-3 16 -11 16 -16 0 -6 8 -4 17 3 11 10 14 10 9 2 -4 -7 -2 -13 3 -13 6 0 11
-5 11 -11 0 -5 -4 -8 -9 -4 -6 3 -9 -4 -8 -15 2 -26 4 -25 22 9 11 23 12 31 2
35 -6 2 -3 4 8 3 11 -2 25 -5 30 -8 6 -4 29 -5 51 -4 34 1 41 -2 37 -14 -3
-11 0 -10 11 3 15 19 16 19 16 1 0 -17 1 -17 22 1 12 10 18 14 15 7 -10 -16
13 -29 23 -13 5 7 7 0 6 -19 0 -17 -5 -31 -10 -31 -5 0 -7 -2 -4 -5 11 -11 38
8 34 24 -3 9 -1 23 4 31 9 13 10 13 10 0 0 -13 1 -13 11 0 9 13 10 13 6 0 -2
-8 -11 -14 -18 -12 -10 3 -11 0 -3 -8 11 -11 47 -3 39 9 -2 4 4 7 13 6 20 -1
23 -20 3 -20 -8 0 -16 -6 -18 -12 -3 -7 0 -13 7 -13 6 0 8 5 5 10 -3 6 -2 10
3 10 5 0 13 -10 18 -21 9 -20 11 -20 26 -6 11 11 18 13 26 5 8 -8 10 -6 8 5
-1 9 -6 20 -11 24 -4 4 -5 2 0 -6 5 -9 4 -12 -3 -7 -6 3 -13 2 -17 -4 -8 -13
-25 -13 -25 0 0 6 7 10 16 10 9 0 14 6 11 13 -5 14 19 17 38 5 6 -3 20 -4 33
-3 12 1 22 -2 22 -7 0 -4 -7 -8 -16 -8 -11 0 -14 -6 -10 -17 4 -11 -2 -8 -13
7 l-20 25 6 -25 c3 -14 10 -30 15 -37 6 -8 2 -19 -13 -34 -18 -18 -19 -21 -5
-16 14 6 17 3 12 -9 -5 -12 -2 -15 10 -10 13 5 14 3 6 -7 -7 -8 -7 -18 -2 -27
6 -9 5 -17 -3 -22 -8 -5 -5 -8 8 -8 17 0 17 -2 5 -10 -12 -8 -13 -11 -1 -19 9
-6 10 -11 3 -15 -6 -4 -9 -13 -6 -21 4 -8 10 -12 15 -9 5 3 6 -3 2 -12 -5 -13
-3 -15 8 -9 12 8 12 6 0 -8 -10 -13 -10 -17 -1 -17 7 0 10 -7 6 -15 -3 -9 1
-18 9 -21 8 -4 15 -13 15 -21 0 -9 5 -11 13 -7 7 5 6 0 -3 -11 -9 -11 -10 -16
-3 -11 8 4 13 2 13 -8 0 -8 4 -16 9 -18 6 -1 12 -15 15 -31 3 -16 1 -25 -5
-22 -5 4 -9 1 -9 -4 0 -6 7 -11 17 -11 9 0 13 -3 10 -7 -4 -3 5 -15 20 -26 20
-13 22 -17 8 -13 -19 6 -19 6 -1 -9 10 -8 23 -12 29 -8 6 3 7 1 3 -5 -4 -7 -2
-12 4 -12 6 0 8 -4 5 -10 -3 -5 -1 -10 6 -10 13 0 59 -46 53 -53 -3 -3 2 -7
10 -10 9 -4 15 -3 15 1 -3 21 3 24 17 6 8 -10 12 -12 8 -4 -4 8 3 5 15 -7 24
-25 36 -30 25 -11 -4 7 2 4 14 -6 20 -17 26 -15 23 6 0 4 6 5 14 2 8 -4 15 -2
15 4 0 6 -6 12 -12 15 -7 3 -3 4 10 4 12 -1 22 -5 22 -9 0 -4 9 -5 20 -3 11 2
18 0 15 -6 -4 -5 0 -9 9 -9 8 0 17 -13 21 -30 4 -17 11 -30 15 -30 5 0 7 -6 4
-14 -3 -8 0 -17 7 -22 8 -5 10 -3 4 6 -5 8 -4 11 3 7 5 -4 8 -16 5 -26 -7 -26
37 -103 54 -97 7 3 13 0 13 -6 0 -7 5 -6 15 2 12 10 15 10 15 -1 0 -11 2 -11
10 1 5 8 10 10 10 4 0 -6 7 -11 15 -11 8 0 12 5 8 10 -3 5 3 6 15 3 14 -5 24
-1 31 11 10 17 10 17 11 0 0 -14 7 -17 35 -14 19 3 35 0 35 -6 0 -6 4 -6 13 0
6 5 31 9 55 9 23 -1 42 4 42 9 0 6 5 3 10 -5 8 -12 10 -12 11 5 0 11 3 14 6 8
7 -18 30 -16 37 3 4 10 2 13 -7 8 -9 -5 -9 -4 -1 5 6 7 20 13 31 14 l21 1 -21
41 c-31 61 -37 67 -54 54 -7 -7 -16 -9 -20 -6 -3 4 -14 2 -24 -4 -23 -12 -25
3 -4 21 13 11 12 16 -6 41 -28 40 -16 77 24 70 5 -1 6 3 2 9 -3 5 1 10 9 10 9
0 16 5 16 10 0 6 3 9 8 8 8 -3 64 32 74 47 4 5 8 7 8 3 0 -4 16 7 35 25 60 56
63 58 68 44 4 -9 6 -9 6 1 1 7 5 11 10 8 5 -4 7 4 3 16 -4 15 -2 19 7 13 10
-6 11 -2 6 16 -7 22 -6 23 7 5 13 -17 16 -14 40 40 14 33 28 71 32 86 3 14 9
33 12 42 5 13 1 16 -18 12 -14 -2 -29 -1 -34 2 -12 9 -17 35 -6 28 5 -3 17 1
27 8 16 11 19 30 22 103 4 132 -28 241 -94 324 -25 31 -31 35 -51 26 -18 -8
-26 -7 -33 4 -14 22 -11 49 6 49 27 0 16 25 -28 66 -24 21 -52 45 -63 51 -120
78 -264 136 -301 122 -13 -5 -23 -5 -23 0 0 5 7 11 15 15 23 8 18 26 -8 26
-13 0 -29 6 -36 13 -11 9 -12 9 -7 0 5 -9 2 -11 -8 -7 -9 3 -13 11 -9 17 3 6
1 7 -6 3 -19 -12 -71 -16 -71 -5 0 6 5 7 12 3 7 -4 8 -3 4 4 -4 6 -13 9 -21 6
-8 -4 -12 -11 -8 -17 3 -6 1 -7 -5 -3 -7 4 -12 2 -12 -5 0 -7 -3 -9 -6 -6 -4
4 -1 14 7 24 12 15 12 16 -2 11 -10 -4 -16 -1 -16 8 0 17 9 18 25 2 9 -9 12
-9 12 0 0 6 -8 16 -17 21 -14 8 -15 10 -3 11 12 0 13 2 1 9 -7 5 -10 14 -7 20
12 19 27 12 22 -11 -2 -16 4 -29 23 -43 16 -11 21 -13 14 -4 -7 9 -9 20 -5 24
4 5 1 5 -6 1 -8 -5 -11 -1 -8 16 3 13 5 25 6 28 2 3 2 8 1 13 0 4 5 7 12 7 6
0 4 5 -5 11 -10 5 -18 21 -18 35 0 18 4 23 13 18 8 -5 8 -2 -2 9 -14 18 -2 24
15 7 6 -6 10 -3 11 11 1 14 -5 23 -19 27 -20 5 -20 6 -3 19 11 7 15 13 9 13
-5 0 -2 5 6 10 12 7 10 9 -7 8 -11 -1 -20 -7 -19 -13 2 -5 1 -7 -1 -3 -2 4
-12 4 -21 1 -11 -3 -13 -2 -6 4 6 4 10 16 8 26 -1 9 1 15 6 12 4 -2 8 6 8 20
0 16 -5 22 -12 18 -6 -4 -4 1 4 12 17 21 17 24 -2 36 -9 6 -6 8 9 6 12 -2 26
-7 30 -12 5 -4 2 -5 -6 0 -10 6 -12 4 -6 -5 5 -7 4 -11 -1 -7 -5 3 -9 -14 -9
-39 0 -24 3 -44 8 -44 4 0 7 7 7 16 0 9 5 12 12 8 6 -4 4 3 -5 17 -16 23 -16
24 16 52 17 16 23 25 12 20 -52 -25 -81 41 -37 85 24 24 28 38 11 44 -9 3 -9
9 -1 25 10 19 9 20 -8 16 -17 -5 -19 -1 -16 18 3 13 5 24 6 24 1 0 3 8 5 17 2
13 -3 16 -30 14 -37 -4 -61 7 -51 23 4 6 2 11 -3 11 -6 0 -11 -6 -11 -14 0 -9
-9 -14 -20 -13 -11 1 -20 5 -20 10 0 5 8 6 18 3 14 -5 14 -4 -2 9 -11 8 -24
15 -29 15 -4 0 -5 5 -1 12 4 7 3 8 -5 4 -6 -4 -18 -2 -26 4 -8 7 -15 10 -15 6
0 -3 13 -14 29 -24 22 -13 27 -22 20 -32 -6 -10 -9 -11 -9 -2 0 6 -5 12 -11
12 -5 0 -7 -5 -3 -12 5 -7 3 -8 -7 -2 -8 4 -36 9 -64 9 -36 1 -49 5 -47 15 3
11 0 11 -14 -1 -16 -13 -17 -12 -11 5 5 12 3 23 -5 28 -23 14 -32 8 -12 -8 14
-12 15 -14 3 -11 -9 3 -27 -2 -40 -10 -12 -9 -19 -11 -15 -5 4 7 3 12 -3 12
-5 0 -13 10 -16 21 -6 17 -9 19 -16 8 -5 -8 -9 -18 -9 -24 0 -5 4 -4 9 3 7 11
9 11 14 -2 5 -13 0 -15 -26 -13 -27 3 -32 7 -29 28 2 19 0 21 -8 9 -9 -13 -10
-13 -10 0 0 13 -1 13 -10 0 -5 -8 -10 -19 -10 -25 0 -5 5 -3 10 5 8 13 10 12
10 -2 0 -20 -8 -22 -30 -8 -9 6 -20 5 -30 -3 -13 -11 -13 -10 -1 5 7 10 17 15
22 12 5 -3 6 3 2 12 -4 11 -8 13 -11 6 -2 -7 -8 -12 -13 -12 -6 0 -7 6 -3 13
4 7 3 9 -2 4 -5 -5 -9 -14 -9 -20 0 -6 -14 -12 -32 -12 -17 0 -30 2 -27 6 2 3
-20 6 -49 6 -28 0 -63 3 -76 7 -18 6 -22 5 -16 -4 5 -9 4 -11 -4 -6 -6 4 -9
11 -6 16 3 5 0 12 -6 16 -8 4 -9 3 -5 -4 4 -7 1 -13 -6 -13 -7 -1 -23 -3 -35
-4 -18 -2 -21 2 -18 26 4 29 3 29 -26 14 -16 -9 -29 -12 -29 -8 0 5 -7 -1 -15
-11 -11 -15 -15 -16 -15 -5 0 8 5 20 12 27 8 8 9 12 1 12 -6 0 -13 -6 -16 -12
-3 -10 -8 -10 -21 1 -9 8 -19 11 -23 7 -3 -3 -1 -6 6 -6 7 0 9 -5 6 -10 -4 -6
-1 -9 6 -8 6 2 14 -3 16 -10 4 -11 1 -12 -13 -5 -11 5 -45 9 -76 8 -32 0 -58
3 -58 8 0 11 -33 5 -43 -8 -5 -6 -7 -4 -4 5 2 8 10 14 16 13 6 -2 11 2 11 7 0
13 -13 13 -27 -1 -7 -7 -27 -12 -46 -13 -33 -1 -34 0 -20 21 10 14 11 23 3 28
-6 3 -10 3 -9 -2 3 -20 -2 -34 -11 -28 -6 4 -8 10 -6 14 3 4 -2 8 -10 8 -10 0
-11 -4 -4 -11 5 -5 10 -17 10 -25 -1 -13 -4 -12 -15 3 -8 11 -15 14 -15 8 0
-7 -5 -12 -11 -12 -5 0 -7 6 -3 13 6 10 4 10 -7 0 -7 -7 -17 -13 -22 -13 -4 0
-5 6 0 13 9 14 13 37 7 37 -2 0 -5 -2 -5 -5z m449 -57 c-5 -14 -58 -21 -58 -8
0 5 9 7 20 5 11 -2 20 0 20 6 0 5 5 9 11 9 6 0 9 -6 7 -12z m507 -58 c3 -5 -1
-10 -10 -10 -9 0 -13 5 -10 10 3 6 8 10 10 10 2 0 7 -4 10 -10z m330 -130 c-4
-6 -2 -16 4 -23 11 -14 3 -31 -17 -35 -10 -2 -11 2 -4 14 5 9 7 25 5 35 -3 11
0 19 6 19 7 0 9 -5 6 -10z m-20 -311 c-4 -6 2 -13 14 -16 12 -3 21 -9 21 -12
0 -9 -31 -8 -47 2 -13 8 -6 37 9 37 5 0 6 -5 3 -11z m5 -54 c0 -1 -7 -8 -15
-15 -13 -11 -14 -10 -9 5 6 14 4 16 -6 10 -8 -5 -11 -4 -6 3 5 9 36 7 36 -3z
m-5 -52 c13 -29 14 -43 4 -43 -5 0 -9 5 -9 10 0 6 -5 9 -12 8 -7 -2 -13 4 -13
12 -3 33 18 41 30 13z m0 -593 c-3 -5 -2 -10 4 -10 5 0 12 4 15 9 7 10 25 9
44 -2 7 -5 12 -3 12 5 0 10 2 10 8 1 5 -7 20 -14 35 -15 14 -1 24 -4 22 -7 -3
-2 5 -9 18 -16 12 -6 21 -18 19 -26 -2 -10 1 -9 11 3 15 19 74 38 63 19 -4 -6
-2 -11 3 -11 6 0 11 -5 11 -11 0 -5 -4 -7 -10 -4 -5 3 -10 0 -10 -8 0 -8 -9
-14 -20 -13 -11 0 -20 -3 -21 -9 0 -5 -5 -18 -10 -28 -7 -12 -6 -19 4 -23 8
-3 13 -16 12 -29 -2 -18 1 -22 13 -18 11 5 13 3 7 -8 -6 -11 -5 -12 6 -1 19
17 28 15 26 -7 0 -11 -5 -17 -9 -15 -4 3 -5 -2 -2 -10 3 -9 10 -13 15 -10 5 3
5 -5 0 -18 -4 -13 -6 -29 -3 -37 2 -8 0 -11 -5 -8 -5 3 -9 -4 -8 -16 1 -12 -5
-27 -14 -34 -13 -10 -13 -12 -2 -13 9 0 1 -13 -19 -30 -18 -16 -30 -30 -25
-30 4 0 -4 -9 -19 -21 -14 -11 -34 -18 -44 -16 -13 4 -12 5 5 6 16 1 21 6 17
16 -4 8 -9 13 -13 10 -27 -16 -150 64 -151 97 0 8 -5 5 -11 -4 -7 -13 -5 -26
6 -48 13 -26 13 -29 0 -24 -8 3 -13 10 -10 14 3 5 0 10 -5 12 -6 2 -12 20 -13
41 -1 20 -6 37 -11 37 -4 0 -6 14 -4 30 3 20 0 30 -9 30 -7 0 -13 6 -13 13 0
7 -3 8 -8 2 -11 -16 -30 -16 -36 1 -4 10 0 14 12 12 13 -2 17 4 16 25 0 26 6
31 36 28 13 -2 13 -1 0 8 -12 8 -12 11 -1 11 8 0 11 6 7 16 -5 12 -2 15 11 10
17 -6 17 -5 1 7 -13 11 -15 16 -6 25 7 7 8 12 4 12 -5 0 -3 7 4 15 7 8 16 13
19 10 4 -2 8 2 8 9 0 11 -4 12 -19 3 -10 -7 -19 -15 -19 -19 -3 -19 -5 -24
-10 -33 -4 -5 -5 -18 -4 -28 2 -10 -1 -14 -7 -11 -6 4 -8 2 -4 -4 3 -6 2 -14
-4 -17 -7 -4 -10 2 -7 17 4 33 44 119 54 117 17 -3 33 1 32 9 -2 12 1 22 7 22
3 0 2 -4 -1 -10z m-1289 -111 c11 -19 -13 -34 -31 -19 -13 11 -13 15 -3 21 18
12 26 11 34 -2z m271 -39 c-1 -11 -4 -20 -8 -20 -10 0 -19 27 -12 34 12 12 22
5 20 -14z"/>
<path d="M1603 1747 c0 -8 6 -14 14 -14 9 0 10 4 2 14 -6 7 -12 13 -14 13 -1
0 -2 -6 -2 -13z"/>
<path d="M1653 1143 c0 -9 4 -10 14 -2 7 6 13 12 13 14 0 1 -6 2 -13 2 -8 0
-14 -6 -14 -14z"/>
<path d="M1602 1076 c7 -8 15 -12 17 -11 5 6 -10 25 -20 25 -5 0 -4 -6 3 -14z"/>
<path d="M1541 964 c0 -11 3 -14 6 -6 3 7 2 16 -1 19 -3 4 -6 -2 -5 -13z"/>
<path d="M1575 949 c-4 -6 -5 -12 -2 -15 2 -3 7 2 10 11 7 17 1 20 -8 4z"/>
<path d="M550 2410 c-8 -5 -10 -10 -5 -10 6 0 17 5 25 10 8 5 11 10 5 10 -5 0
-17 -5 -25 -10z"/>
<path d="M576 2395 c-8 -7 -13 -15 -9 -18 3 -4 11 1 18 10 8 11 14 13 19 5 4
-7 2 -12 -3 -12 -6 0 -11 -3 -11 -8 0 -4 21 -8 48 -8 26 -1 41 1 34 3 -6 3 -9
10 -5 16 4 7 -1 6 -10 -2 -14 -11 -20 -11 -32 -1 -8 7 -13 16 -10 19 7 12 -21
9 -39 -4z"/>
<path d="M640 2400 c-9 -6 -10 -10 -3 -10 6 0 15 5 18 10 8 12 4 12 -15 0z"/>
<path d="M786 2398 c3 -5 10 -6 15 -3 13 9 11 12 -6 12 -8 0 -12 -4 -9 -9z"/>
<path d="M835 2393 c-3 -10 -1 -19 4 -21 6 -2 11 -8 11 -13 0 -6 -4 -7 -10 -4
-5 3 -10 1 -10 -4 0 -6 4 -11 9 -11 16 0 24 21 13 32 -6 6 -8 17 -5 24 3 8 3
14 0 14 -3 0 -8 -8 -12 -17z"/>
<path d="M915 2401 c-3 -5 -2 -12 3 -15 5 -3 9 1 9 9 0 17 -3 19 -12 6z"/>
<path d="M996 2402 c-3 -5 1 -9 9 -9 8 0 12 4 9 9 -3 4 -7 8 -9 8 -2 0 -6 -4
-9 -8z"/>
<path d="M266 2378 c3 -5 10 -6 15 -3 13 9 11 12 -6 12 -8 0 -12 -4 -9 -9z"/>
<path d="M870 2380 c0 -5 5 -10 10 -10 6 0 10 5 10 10 0 6 -4 10 -10 10 -5 0
-10 -4 -10 -10z"/>
<path d="M1050 2386 c0 -2 7 -7 16 -10 8 -3 12 -2 9 4 -6 10 -25 14 -25 6z"/>
<path d="M1215 2380 c-3 -5 -3 -10 2 -10 4 0 1 -5 -7 -11 -12 -8 -12 -10 -1
-7 8 2 15 12 17 21 3 19 -2 22 -11 7z"/>
<path d="M904 2361 c1 -22 26 -26 26 -4 0 14 -2 15 -9 4 -8 -12 -10 -12 -13 0
-4 12 -5 12 -4 0z"/>
<path d="M981 2364 c12 -15 11 -16 -7 -10 -15 5 -24 2 -28 -10 -5 -14 -4 -15
9 -4 12 10 15 10 15 0 0 -9 3 -10 13 -1 10 8 17 7 28 -2 7 -6 3 0 -10 16 -26
29 -43 38 -20 11z"/>
<path d="M1020 2369 c0 -14 35 -41 57 -45 8 -1 7 6 -4 22 -18 28 -25 31 -17 7
4 -13 0 -11 -15 6 -13 14 -21 18 -21 10z"/>
<path d="M1274 2366 c1 -8 5 -18 8 -22 4 -3 5 1 4 10 -1 8 -5 18 -8 22 -4 3
-5 -1 -4 -10z"/>
<path d="M1137 2353 c3 -7 6 -13 8 -13 2 0 5 6 8 13 3 8 -1 14 -8 14 -7 0 -11
-6 -8 -14z"/>
<path d="M1249 2353 c6 -12 16 -25 22 -28 20 -13 15 0 -9 25 -22 23 -24 23
-13 3z"/>
<path d="M1456 2362 c-3 -4 4 -9 15 -9 23 -2 25 3 4 10 -8 4 -16 3 -19 -1z"/>
<path d="M1500 2366 c0 -2 8 -10 18 -17 15 -13 16 -12 3 4 -13 16 -21 21 -21
13z"/>
<path d="M1350 2341 c0 -6 5 -13 11 -16 6 -4 8 -12 6 -19 -3 -7 13 -11 49 -11
42 -1 51 2 42 12 -5 7 -14 10 -19 7 -5 -3 -15 -2 -21 3 -7 4 -22 8 -33 8 -11
1 -19 6 -17 13 1 7 -2 12 -8 12 -5 0 -10 -4 -10 -9z m66 -33 c3 -4 -1 -5 -10
-4 -8 1 -18 5 -22 8 -3 4 1 5 10 4 8 -1 18 -5 22 -8z"/>
<path d="M1530 2320 c0 -5 5 -10 11 -10 5 0 7 5 4 10 -3 6 -8 10 -11 10 -2 0
-4 -4 -4 -10z"/>
<path d="M1566 2322 c-3 -5 1 -9 9 -9 8 0 12 4 9 9 -3 4 -7 8 -9 8 -2 0 -6 -4
-9 -8z"/>
<path d="M275 2310 c-4 -6 -12 -7 -18 -4 -7 4 -9 3 -4 -1 4 -5 18 -10 30 -11
12 -2 16 0 9 2 -6 3 -10 10 -6 15 3 5 3 9 0 9 -3 0 -8 -5 -11 -10z"/>
<path d="M1581 2284 c0 -11 3 -14 6 -6 3 7 2 16 -1 19 -3 4 -6 -2 -5 -13z"/>
<path d="M277 2269 c7 -7 15 -10 18 -7 3 3 -2 9 -12 12 -14 6 -15 5 -6 -5z"/>
<path d="M1666 2262 c-3 -5 1 -9 9 -9 8 0 12 4 9 9 -3 4 -7 8 -9 8 -2 0 -6 -4
-9 -8z"/>
<path d="M250 2239 c0 -5 5 -7 10 -4 6 3 10 8 10 11 0 2 -4 4 -10 4 -5 0 -10
-5 -10 -11z"/>
<path d="M279 2233 c-12 -16 -12 -17 2 -6 9 7 20 9 24 5 5 -4 5 -1 1 6 -9 16
-11 15 -27 -5z"/>
<path d="M1650 2220 c-6 -11 -8 -20 -6 -20 3 0 10 9 16 20 6 11 8 20 6 20 -3
0 -10 -9 -16 -20z"/>
<path d="M1680 2220 c-12 -7 -10 -9 7 -7 12 0 19 5 17 9 -6 10 -6 10 -24 -2z"/>
<path d="M290 2209 c0 -5 -6 -7 -12 -3 -8 5 -7 1 2 -10 12 -16 11 -20 -10 -37
-24 -17 -24 -18 -3 -13 26 7 55 74 32 74 -5 0 -9 -5 -9 -11z"/>
<path d="M227 2199 c7 -7 15 -10 18 -7 3 3 -2 9 -12 12 -14 6 -15 5 -6 -5z"/>
<path d="M1688 2183 c-10 -2 -18 -9 -18 -14 0 -6 8 -5 20 1 11 6 20 13 20 15
0 3 -1 4 -2 4 -2 -1 -11 -3 -20 -6z"/>
<path d="M210 2140 c0 -5 5 -10 11 -10 5 0 7 5 4 10 -3 6 -8 10 -11 10 -2 0
-4 -4 -4 -10z"/>
<path d="M276 2133 c13 -9 15 -43 2 -43 -4 0 -8 -7 -8 -16 0 -9 6 -14 12 -12
18 6 16 70 -2 75 -10 3 -11 2 -4 -4z"/>
<path d="M260 2110 c0 -5 -6 -7 -14 -4 -8 3 -16 1 -20 -4 -3 -5 5 -8 16 -7 19
1 41 25 24 25 -3 0 -6 -4 -6 -10z"/>
<path d="M1651 2096 c-18 -10 -20 -14 -9 -19 8 -3 22 3 31 14 19 22 12 24 -22
5z"/>
<path d="M1633 2056 c3 -6 10 -10 16 -8 6 1 11 -2 11 -8 0 -5 4 -10 10 -10 5
0 6 7 3 17 -4 11 -3 14 5 9 7 -4 12 -3 12 2 0 5 -14 9 -30 9 -18 0 -29 -5 -27
-11z"/>
<path d="M261 2041 c-10 -6 -9 -10 3 -14 8 -3 18 -2 21 3 8 13 -9 20 -24 11z"/>
<path d="M254 2012 c3 -6 -2 -13 -11 -15 -16 -4 -16 -5 -1 -6 21 -1 32 15 17
25 -7 4 -9 3 -5 -4z"/>
<path d="M185 1980 c-3 -6 1 -7 9 -4 18 7 21 14 7 14 -6 0 -13 -4 -16 -10z"/>
<path d="M269 1988 c0 -2 -2 -12 -4 -23 -8 -43 -11 -54 -25 -71 -8 -10 -10
-15 -4 -11 7 4 15 0 18 -9 5 -12 2 -15 -11 -10 -17 6 -17 5 0 -8 21 -16 22
-26 2 -26 -8 0 -15 -4 -15 -10 0 -5 7 -7 15 -4 21 9 19 -2 -7 -26 l-23 -22 26
12 c16 7 26 19 24 29 -1 9 2 24 6 33 6 10 5 19 -1 23 -8 5 -7 11 1 21 10 12 9
13 -7 7 -17 -6 -17 -5 -5 10 7 9 10 17 5 17 -5 0 -1 5 9 11 13 8 15 15 7 28
-5 10 -6 21 -3 25 3 3 3 6 0 6 -4 0 -7 -1 -8 -2z"/>
<path d="M1670 1973 c5 -2 8 -9 4 -14 -3 -5 0 -9 6 -9 15 0 7 23 -8 26 -7 1
-8 0 -2 -3z"/>
<path d="M1705 1959 c-3 -4 2 -6 10 -5 21 3 28 13 10 13 -9 0 -18 -4 -20 -8z"/>
<path d="M1660 1916 c0 -2 7 -7 16 -10 8 -3 12 -2 9 4 -6 10 -25 14 -25 6z"/>
<path d="M1676 1874 c-8 -22 -8 -24 6 -24 6 0 8 3 5 7 -4 3 -2 12 4 20 7 8 8
13 1 13 -5 0 -13 -7 -16 -16z"/>
<path d="M199 1833 c-13 -17 -13 -17 6 -3 11 8 22 16 24 17 2 2 0 3 -6 3 -6 0
-17 -8 -24 -17z"/>
<path d="M197 1795 c-4 -8 -3 -16 1 -19 4 -3 9 4 9 15 2 23 -3 25 -10 4z"/>
<path d="M1651 1776 c-9 -10 -9 -16 -1 -21 6 -4 14 -4 17 -1 4 3 0 6 -8 6 -12
0 -12 2 1 10 8 5 12 12 9 15 -4 3 -12 -1 -18 -9z"/>
<path d="M254 1765 c-4 -8 -11 -12 -17 -8 -6 3 -7 1 -3 -5 4 -7 2 -12 -5 -12
-7 0 -10 -3 -6 -6 8 -8 41 17 45 34 3 17 -7 15 -14 -3z"/>
<path d="M1690 1740 c0 -5 5 -10 11 -10 5 0 7 5 4 10 -3 6 -8 10 -11 10 -2 0
-4 -4 -4 -10z"/>
<path d="M193 1725 c0 -8 4 -12 9 -9 5 3 6 10 3 15 -9 13 -12 11 -12 -6z"/>
<path d="M1655 1700 c-3 -6 1 -7 9 -4 18 7 21 14 7 14 -6 0 -13 -4 -16 -10z"/>
<path d="M210 1640 c0 -5 5 -10 11 -10 5 0 7 5 4 10 -3 6 -8 10 -11 10 -2 0
-4 -4 -4 -10z"/>
<path d="M1679 1633 c-13 -17 -13 -17 6 -3 11 8 22 16 24 17 2 2 0 3 -6 3 -6
0 -17 -8 -24 -17z"/>
<path d="M190 1625 c0 -5 5 -17 10 -25 5 -8 10 -10 10 -5 0 6 -5 17 -10 25 -5
8 -10 11 -10 5z"/>
<path d="M236 1621 c-19 -7 -19 -8 0 -13 13 -3 21 0 21 8 0 8 -1 14 -1 13 -1
0 -10 -4 -20 -8z"/>
<path d="M176 1582 c-3 -5 1 -9 9 -9 8 0 12 4 9 9 -3 4 -7 8 -9 8 -2 0 -6 -4
-9 -8z"/>
<path d="M175 1540 c-3 -5 -1 -10 4 -10 6 0 11 5 11 10 0 6 -2 10 -4 10 -3 0
-8 -4 -11 -10z"/>
<path d="M193 1404 c0 -8 6 -13 13 -10 8 3 16 1 19 -4 4 -6 1 -10 -4 -10 -6 0
-11 -5 -11 -11 0 -8 5 -8 15 1 17 14 13 25 -14 39 -13 8 -18 6 -18 -5z"/>
<path d="M177 1366 c-4 -10 -3 -15 3 -11 6 3 10 1 10 -6 0 -7 3 -10 6 -6 3 3
2 13 -4 22 -8 16 -9 16 -15 1z"/>
<path d="M213 1341 c-10 -10 -26 -17 -36 -15 -11 1 -16 0 -13 -4 12 -11 46
-12 46 -1 0 5 6 7 13 3 6 -4 9 -4 5 1 -4 4 -3 14 3 22 17 20 2 16 -18 -6z"/>
<path d="M196 1285 c-3 -8 -1 -15 4 -15 6 0 10 7 10 15 0 8 -2 15 -4 15 -2 0
-6 -7 -10 -15z"/>
<path d="M176 1257 c3 -10 9 -15 12 -12 3 3 0 11 -7 18 -10 9 -11 8 -5 -6z"/>
<path d="M150 1236 c0 -2 6 -9 14 -15 11 -9 16 -9 22 0 4 8 3 9 -4 5 -7 -4
-12 -2 -12 3 0 6 -4 11 -10 11 -5 0 -10 -2 -10 -4z"/>
<path d="M440 1005 c-8 -9 -8 -15 -2 -15 6 0 13 6 15 13 4 10 6 10 6 0 1 -7 5
-13 11 -13 5 0 7 7 4 15 -4 8 -10 15 -14 15 -4 0 -13 -7 -20 -15z"/>
<path d="M716 1011 c-4 -6 -3 -17 2 -24 5 -7 12 -21 15 -32 4 -18 5 -18 6 2 1
17 5 21 19 16 9 -4 20 -11 24 -17 5 -7 8 -6 8 2 0 8 -9 16 -19 19 -11 3 -18
10 -17 16 2 7 1 8 -2 4 -2 -4 -10 0 -16 9 -10 12 -15 14 -20 5z m18 -17 c3 -8
2 -12 -4 -9 -6 3 -10 10 -10 16 0 14 7 11 14 -7z"/>
<path d="M639 1006 c-7 -5 -5 -56 2 -56 6 0 8 4 5 9 -4 5 0 12 6 14 10 4 10 6
1 6 -7 1 -13 6 -13 12 0 5 4 8 9 4 5 -3 12 -2 15 3 4 7 -18 13 -25 8z"/>
<path d="M776 1001 c-6 -10 6 -15 19 -8 10 5 36 -44 30 -56 -4 -6 2 -1 13 13
16 20 23 22 35 12 12 -10 16 -10 20 2 6 16 -18 42 -27 28 -8 -13 -46 -7 -57 9
-7 12 -9 12 -9 -1 0 -12 -2 -12 -9 -1 -6 9 -11 10 -15 2z m109 -21 c3 -5 1
-10 -4 -10 -6 0 -11 5 -11 10 0 6 2 10 4 10 3 0 8 -4 11 -10z m-35 -4 c0 -3
-4 -8 -10 -11 -5 -3 -10 -1 -10 4 0 6 5 11 10 11 6 0 10 -2 10 -4z"/>
<path d="M347 979 c7 -7 15 -10 18 -7 3 3 -2 9 -12 12 -14 6 -15 5 -6 -5z"/>
<path d="M415 983 c3 -3 -3 -16 -12 -27 -14 -15 -14 -18 -2 -8 9 6 18 9 22 6
3 -3 4 1 3 10 -1 8 -5 18 -9 21 -4 3 -5 2 -2 -2z"/>
<path d="M450 977 c0 -2 6 -10 14 -16 11 -9 16 -9 22 1 4 7 4 10 -1 6 -4 -4
-14 -3 -22 3 -7 6 -13 9 -13 6z"/>
<path d="M700 971 c0 -6 4 -13 10 -16 6 -3 7 1 4 9 -7 18 -14 21 -14 7z"/>
<path d="M550 961 c0 -6 4 -13 10 -16 6 -3 7 1 4 9 -7 18 -14 21 -14 7z"/>
<path d="M796 943 c-6 -14 -5 -15 5 -6 7 7 10 15 7 18 -3 3 -9 -2 -12 -12z"/>
<path d="M955 949 c-4 -6 -5 -12 -2 -15 2 -3 7 2 10 11 7 17 1 20 -8 4z"/>
<path d="M666 938 c3 -4 9 -8 15 -8 5 0 9 4 9 8 0 5 -7 9 -15 9 -8 0 -12 -4
-9 -9z"/>
<path d="M980 926 c7 -7 13 -7 20 0 6 6 3 10 -10 10 -13 0 -16 -4 -10 -10z"/>
<path d="M870 921 c0 -6 4 -13 10 -16 6 -3 7 1 4 9 -7 18 -14 21 -14 7z"/>
</g>
</svg>
